<svg id="svg" version="1.1" xmlns="http://www.w3.org/2000/svg" xmlns:xlink="http://www.w3.org/1999/xlink" width="400" height="400" viewBox="0, 0, 400,400"><g id="svgg"><path id="path0" d="M173.768 13.651 C 173.591 13.938,173.315 16.699,173.154 19.786 C 172.993 22.874,172.582 28.010,172.240 31.200 C 171.899 34.390,171.163 44.020,170.606 52.600 C 170.049 61.180,169.414 70.270,169.195 72.800 C 168.152 84.843,167.197 96.887,167.071 99.600 C 166.949 102.229,166.346 110.484,164.777 131.000 C 164.527 134.269,164.151 136.782,163.874 137.038 C 163.163 137.693,150.029 143.178,141.415 146.416 C 137.243 147.984,133.373 149.499,132.815 149.782 C 130.694 150.858,101.360 159.276,97.864 159.812 C 95.849 160.121,93.578 160.558,92.817 160.783 C 87.796 162.268,65.367 165.375,51.900 166.451 C 45.825 166.936,44.583 167.358,47.900 167.810 C 56.450 168.973,65.160 170.957,73.334 173.604 C 76.732 174.704,81.197 176.121,83.256 176.752 C 88.361 178.317,99.829 183.143,108.980 187.579 C 113.149 189.599,118.689 192.238,121.291 193.442 C 123.893 194.646,126.831 196.144,127.819 196.771 C 128.808 197.398,131.728 198.855,134.309 200.008 C 136.889 201.161,140.620 202.867,142.600 203.798 C 144.580 204.730,146.720 205.704,147.356 205.963 L 148.513 206.434 148.279 215.717 C 148.068 224.081,146.358 248.514,145.820 250.858 C 145.496 252.267,144.060 267.189,143.785 272.000 C 143.653 274.310,143.289 277.460,142.977 279.000 C 142.665 280.540,142.036 284.680,141.580 288.200 C 141.124 291.720,140.490 296.310,140.172 298.400 C 138.120 311.869,136.617 321.433,135.207 330.000 C 134.320 335.390,133.149 342.680,132.606 346.200 C 132.062 349.720,131.262 354.580,130.828 357.000 C 129.523 364.275,126.739 384.336,126.874 385.491 C 127.004 386.604,128.089 385.282,135.434 375.066 C 136.515 373.562,138.483 370.862,139.806 369.066 C 143.552 363.980,146.573 359.587,147.827 357.400 C 148.863 355.593,152.040 351.112,157.298 344.043 C 158.344 342.636,159.200 341.314,159.200 341.105 C 159.200 340.896,160.249 339.256,161.530 337.462 C 162.812 335.668,165.280 332.130,167.015 329.600 C 168.750 327.070,171.481 323.209,173.085 321.019 C 174.688 318.830,176.000 316.827,176.000 316.568 C 176.000 316.310,176.284 315.862,176.631 315.574 C 177.288 315.029,184.968 304.675,188.800 299.170 C 191.356 295.497,201.881 282.024,205.740 277.485 C 207.196 275.771,208.591 273.990,208.839 273.527 C 209.087 273.063,209.721 272.305,210.247 271.842 C 210.773 271.379,212.598 269.350,214.302 267.333 C 221.820 258.433,229.348 250.400,230.167 250.404 C 236.055 250.429,258.062 258.728,274.400 267.083 C 282.106 271.024,291.061 275.865,295.400 278.436 C 296.060 278.827,298.670 280.354,301.200 281.829 C 303.730 283.305,312.460 288.604,320.600 293.607 C 334.315 302.035,337.636 304.000,338.162 304.000 C 338.638 304.000,336.954 300.213,333.901 294.420 C 332.099 290.999,329.605 286.130,328.360 283.600 C 325.958 278.717,312.334 254.636,311.370 253.569 C 311.057 253.221,310.800 252.815,310.800 252.666 C 310.800 251.860,297.137 230.318,294.522 227.000 C 294.001 226.340,292.573 224.270,291.348 222.400 C 290.123 220.530,288.529 218.370,287.807 217.600 C 287.085 216.830,286.264 215.750,285.982 215.200 C 285.304 213.877,282.329 209.880,281.741 209.502 C 281.486 209.338,280.638 208.314,279.857 207.226 C 279.075 206.138,277.528 204.245,276.418 203.020 C 273.711 200.031,273.745 199.556,277.233 191.524 C 282.738 178.850,294.511 154.633,299.657 145.400 C 301.741 141.660,303.991 137.430,304.657 136.000 C 305.322 134.570,307.456 130.700,309.398 127.400 C 311.340 124.100,313.768 119.870,314.793 118.000 C 317.166 113.671,319.348 109.952,321.034 107.362 C 321.764 106.240,322.589 104.800,322.867 104.162 C 323.145 103.523,323.772 102.459,324.259 101.798 C 324.747 101.137,325.986 99.067,327.013 97.198 C 328.041 95.329,329.208 93.440,329.608 93.000 C 330.007 92.560,331.363 90.400,332.621 88.200 C 333.879 86.000,336.008 82.443,337.354 80.296 C 338.699 78.149,340.250 75.670,340.800 74.785 C 341.350 73.901,344.526 68.818,347.859 63.489 C 356.352 49.906,355.859 50.800,354.855 50.800 C 353.603 50.800,341.632 54.630,338.110 56.157 C 336.399 56.899,334.327 57.625,333.504 57.770 C 331.618 58.104,325.037 60.758,317.795 64.108 C 314.718 65.531,309.860 67.713,307.000 68.957 C 304.140 70.201,301.440 71.429,301.000 71.685 C 300.560 71.942,299.480 72.481,298.600 72.883 C 297.720 73.286,296.550 73.870,296.000 74.181 C 295.450 74.492,293.560 75.448,291.800 76.305 C 290.040 77.161,285.540 79.629,281.800 81.788 C 278.060 83.947,274.010 86.283,272.800 86.980 C 271.590 87.677,268.170 89.867,265.200 91.846 C 262.230 93.825,258.872 95.922,257.738 96.506 C 255.699 97.556,251.082 100.667,245.951 104.448 C 242.857 106.728,242.693 106.751,240.633 105.192 C 237.682 102.959,224.061 89.227,220.786 85.183 C 218.986 82.960,217.270 81.048,216.972 80.934 C 216.674 80.820,216.315 80.363,216.174 79.919 C 216.033 79.475,215.333 78.456,214.618 77.656 C 212.801 75.621,205.904 65.537,202.411 59.810 C 200.805 57.175,199.180 54.565,198.800 54.010 C 198.420 53.454,196.704 50.480,194.986 47.400 C 193.269 44.320,190.832 40.090,189.572 38.000 C 188.311 35.910,186.497 32.739,185.540 30.953 C 183.349 26.865,179.254 20.248,176.657 16.600 C 174.076 12.975,174.144 13.044,173.768 13.651 " stroke="none" fill="#d48cb2" fill-rule="evenodd"></path></g></svg>