<?xml version="1.0" encoding="UTF-8" standalone="no"?>
<svg
   xmlns:dc="http://purl.org/dc/elements/1.1/"
   xmlns:cc="http://creativecommons.org/ns#"
   xmlns:rdf="http://www.w3.org/1999/02/22-rdf-syntax-ns#"
   xmlns:svg="http://www.w3.org/2000/svg"
   xmlns="http://www.w3.org/2000/svg"
   id="svg56"
   version="1.1"
   viewBox="0 0 113.44656 109.10086"
   height="109.10086mm"
   width="113.44656mm">
  <defs
     id="defs50" />
  <metadata
     id="metadata53">
    <rdf:RDF>
      <cc:Work
         rdf:about="">
        <dc:format>image/svg+xml</dc:format>
        <dc:type
           rdf:resource="http://purl.org/dc/dcmitype/StillImage" />
        <dc:title></dc:title>
      </cc:Work>
    </rdf:RDF>
  </metadata>
  <g
     transform="translate(-58.136454,-166.82144)"
     id="layer1">
    <g
       style="stroke:none;stroke-width:3.17118578;stroke-miterlimit:4;stroke-dasharray:none;stroke-opacity:1"
       transform="matrix(0.63058908,0,0,0.63076876,85.630975,186.51132)"
       id="g36">
      <g
         style="fill:#000000;stroke:none;stroke-width:31.71185777;stroke-miterlimit:4;stroke-dasharray:none;stroke-opacity:1"
         transform="matrix(0.1,0,0,-0.1,0,288)"
         id="g12">
        <path
           style="stroke:none;stroke-width:31.71185777;stroke-miterlimit:4;stroke-dasharray:none;stroke-opacity:1"
           d="m 960.35921,2492.2533 c -7.68926,-14.1956 -3.54889,-23.0678 22.47627,-44.3611 15.96999,-13.0126 18.92742,-20.1103 18.92742,-40.2207 0,-30.1655 -15.37853,-120.6621 -27.20816,-160.8828 -43.76958,-145.5043 -93.45399,-234.8179 -182.17612,-327.089 -46.72701,-48.5014 -65.65439,-57.9651 -136.6321,-66.2459 -43.17812,-4.7319 -70.97772,-11.8296 -103.50917,-26.6166 -60.33106,-26.6167 -72.16068,-28.3911 -130.12581,-18.336 -80.44141,14.1956 -100.55178,26.0252 -192.23132,115.3389 -80.44141,78.0755 -101.73473,89.9051 -182.767619,101.1432 -23.067756,3.5489 -50.8673607,7.6893 -61.514018,9.4637 -42.586628,6.5064 -84.58178,64.4714 -110.015453,151.4192 -11.23814,39.0377 -9.46369,46.1355 15.96998,60.9225 24.250718,14.1956 28.391092,20.7018 20.701838,34.3059 -8.280736,16.5615 -55.599208,11.2381 -108.241018,-11.8297 -53.23328,-24.2507 -79.84992,-45.544 -79.84992,-64.4714 0,-20.1103 12.42109,-23.0677 47.31847,-10.6466 39.03774,14.1955 47.31848,8.8722 60.33106,-37.8548 31.93997,-118.8877 82.807325,-167.3891 186.907977,-179.2187 75.11808,-8.2808 102.326203,-23.0678 178.035763,-97.003 76.89252,-75.1181 92.86251,-86.9477 149.64469,-107.6495 37.26331,-14.1955 52.05033,-15.9699 111.19842,-16.5614 67.42883,0 68.6118,0 112.38139,22.4762 38.44626,19.5189 52.6418,23.0678 105.28361,28.3911 75.11808,7.0978 89.31362,13.604 156.15097,75.7096 27.79961,26.6166 33.76548,37.5341 59.01522,49.9181 21.52409,9.3784 91.76974,-76.0595 148.00312,-93.0963 34.3059,-8.2806 74.5265,21.2933 90.4966,66.8375 26.6166,75.7095 -12.4211,162.0657 -91.6796,201.695 -40.22068,20.1103 -46.13549,32.5315 -33.7144,66.8373 21.8848,60.9226 34.8974,110.0154 43.1781,165.6146 4.7319,33.123 11.8296,63.2885 15.3785,67.4289 3.5489,4.1404 18.3359,7.6892 34.3059,7.6892 35.4889,0 47.3185,11.2382 33.7145,31.3486 -11.8297,17.7443 -36.6719,29.574 -95.2285,44.9525 -58.55661,15.3785 -66.83735,15.3785 -74.52659,0.5915 z m 62.69699,-441.2448 c 36.6718,-23.6592 51.4588,-49.6844 51.4588,-89.9051 0,-58.5566 -18.9274,-73.9351 -56.7821,-47.3185 -30.75705,21.2933 -86.94774,70.3862 -86.94774,76.301 0,11.8297 16.56146,4.1404 45.54403,-21.2933 33.12291,-28.9826 56.19071,-34.3059 66.83731,-15.3785 8.8723,17.153 -0.5914,34.8974 -37.8547,71.5692 -18.33595,17.7445 -33.12298,34.3059 -33.12298,36.6719 0,10.0551 28.39108,4.1404 50.86738,-10.6467 z m -930.399565,697.356 c -49.684399,-60.9225 -56.19069,-62.1054 -86.9476995,-19.5189 -21.8847945,30.1656 -31.3484895,34.8974 -43.7695905,22.4764 -11.829618,-11.8297 -8.280732,-36.6719 10.055176,-65.0629 26.6166436,-41.4038 26.6166436,-46.1356 3.548886,-89.9051 -26.025161,-48.5015 -26.616642,-76.3012 -1.774442,-79.2585 13.604061,-1.7745 18.3359085,2.3659 35.4888565,32.5314 11.2381375,18.9274 24.8421995,34.8974 30.7570095,36.0804 6.50629,1.183 24.842199,-11.8297 47.909957,-33.7144 20.701832,-20.1104 39.629222,-36.0803 43.178112,-36.0803 11.23814,0 26.02515,23.0677 21.88479,34.3058 -1.77444,6.5063 -17.74443,28.3911 -35.48886,48.5014 -17.744424,19.5189 -32.531448,40.8122 -32.531448,47.3186 0,5.9148 14.787024,28.9825 32.531448,51.4588 35.48886,43.7696 44.95256,65.0629 31.93998,73.3436 -18.33591,11.2382 -34.3059,5.3234 -56.782175,-22.4763 z m 613.365755,73.9352 c -11.23813,-17.153 -25.43368,-32.5315 -31.93997,-33.123 -6.50629,-1.7744 -20.70183,7.0978 -35.48886,21.2934 -28.98256,27.7995 -46.72699,37.8547 -59.14809,33.1229 -24.25071,-9.4638 -15.37851,-36.6718 25.43368,-75.7096 16.56147,-15.3785 31.93998,-34.3059 33.71441,-41.9951 1.77445,-8.2808 -2.9574,-28.3911 -12.4211,-50.8674 -27.7996,-66.8374 -30.16552,-81.0329 -15.37849,-95.8199 17.15294,-17.7444 29.57404,-8.8723 47.90995,34.8973 30.16553,71.5693 34.89737,73.3437 87.53918,40.8122 39.62922,-24.2506 66.83734,-31.3485 76.30104,-19.5189 10.05518,12.4212 -0.59148,31.3486 -27.7996,49.6844 -41.99515,28.9826 -65.0629,50.2759 -65.0629,60.9226 0,5.3234 8.28073,23.6592 17.74442,41.4037 19.51887,35.4888 22.47628,56.7821 8.28074,62.1054 -20.70184,7.6893 -30.16554,2.366 -49.68441,-27.208 z M 398.4523,3174.8223 c -39.03775,-2.9574 -183.95059,-24.2508 -212.93316,-31.94 -70.38623,-17.1529 -121.845071,-31.3484 -127.1684,-35.4888 -2.957405,-2.366 -16.561467,-7.6893 -29.574047,-11.8296 -33.7144144,-10.6467 -118.296191,-56.1908 -159.699853,-85.7648 -109.42397,-78.0754 -163.24874,-163.2487 -195.18872,-310.5275 -8.28072,-40.8122 -28.98256,-128.3513 -44.95255,-195.1887 -47.31847,-198.1461 -49.09292,-208.7928 -49.09292,-340.1016 0,-110.0154 1.18296,-123.6194 16.56147,-189.2739 46.13551,-194.5973 148.46172,-314.6679 330.637849,-386.8285 47.909957,-19.5189 119.479152,-43.1782 205.243891,-68.6119 14.78702,-4.1403 63.87995,-15.3785 109.42398,-24.2507 76.30103,-14.787 94.63696,-16.5614 224.76277,-16.5614 127.1684,-0.5915 148.46172,1.1829 207.01833,13.6041 62.69699,13.0125 142.54691,37.8547 186.3165,57.3736 34.89737,15.3785 97.59436,46.727 100.55177,49.6844 1.77443,1.7745 20.11035,13.6041 41.40369,26.0251 72.1606,43.7696 160.8828,121.8452 195.7801,173.304 46.7271,67.4288 105.2836,215.2991 133.6748,337.7357 14.787,62.6969 15.9699,79.8499 15.9699,184.542 0,107.0581 -1.1829,119.4791 -16.5614,177.4443 -8.8723,34.3059 -18.336,64.4714 -20.7018,68.0203 -2.366,2.9574 -9.4637,19.5189 -15.3785,35.4889 -57.3737,157.3339 -221.8054,345.4248 -393.3349,449.5255 -90.49657,55.5992 -171.52946,88.7221 -275.03864,112.3813 -41.40366,9.4638 -167.3891,15.3785 -227.72016,11.2382 z m 221.80536,-99.3689 c 144.91283,-34.8972 284.50234,-114.1557 396.88374,-226.5371 215.8905,-216.482 292.1916,-460.7637 226.5372,-726.3386 -6.5063,-26.0251 -14.1955,-52.6419 -17.153,-59.1481 -2.9573,-6.5063 -14.787,-37.2633 -26.6166,-68.0204 -24.8422,-63.2884 -59.7396,-131.9002 -83.9903,-163.8402 -22.4763,-29.574 -92.8625,-88.7221 -151.41913,-127.1684 -88.72214,-59.1481 -179.21872,-97.5943 -293.96603,-125.9854 -135.44914,-33.7145 -366.7182,-23.0678 -520.50326,23.6592 -14.78702,4.1404 -46.72699,13.6041 -70.977707,20.7018 -230.677563,66.8373 -340.101543,165.6147 -392.151873,354.8887 -17.74442,63.8799 -23.65923,128.9428 -20.11035,224.1713 3.54889,95.2284 11.23814,139.5895 51.45885,290.4171 10.05517,37.2632 21.88479,90.4966 26.61664,118.2961 27.20812,150.8277 47.90996,203.4695 107.64953,266.758 97.002876,102.3261 222.988317,160.8828 419.35999,194.0058 95.81993,15.9699 110.01547,17.1529 215.29909,15.3785 60.33105,-0.5915 105.87508,-4.7319 133.08321,-11.2383 z"
           id="path10" />
      </g>
    </g>
  </g>
</svg>
